<?xml version="1.0" encoding="UTF-8"?>
<svg id="_レイヤー_1" data-name=" レイヤー 1" xmlns="http://www.w3.org/2000/svg" xmlns:xlink="http://www.w3.org/1999/xlink" viewBox="0 0 1363.94 599.48">
  <defs>
    <style>
      .cls-1 {
        fill: none;
      }

      .cls-2 {
        fill: url(#_名称未設定グラデーション);
      }

      .cls-3 {
        clip-path: url(#clippath);
      }
    </style>
    <clipPath id="clippath">
      <path class="cls-1" d="M371.17,326.26c-59.6-15.43-134.85-62.72-176.31-102l12.23,253.11-4.95,1.43-30.24-241.33c-31.46,61.82-78.1,119.86-130.79,162.58l-11.71-9.43c53.17-45.18,101.51-111.47,130.58-178.43L29.93,249.63l-6.62-17.1,143.66-41.36-6.76-63.62-111.06,31.98-6.58-16.73,115.72-33.32-7.44-70.02c26.99-6.61,40.64-6.66,41.24-1.01.4,3.77-4.26,8.6-15.24,16.42l5.08,47.81,74.52-21.46,15.55-27.37c12.94,7.14,18.56,11.34,29.91,20.87l-5.21,13.53-112.85,32.49,6.76,63.62,100.31-28.88,17.62-28.74c12.19,6.97,17.36,10.52,29.99,21.63l-5.53,14.01-137.93,39.71c48.67,41.08,130.32,86.14,194.74,94.75,61.49-14.45,58.39-16.52,110.85-56.26l-129.12-21.23,1.12-18.71,153.03,25.16,33.22-94.66-128.75-21.17,1.23-17.93,133.54,21.96,20.18-57.51c25.74,5.37,37.36,11.06,35.48,16.41-1.25,3.57-6.8,6.06-19.34,8.53l-12.79,36.43,91.23,15,25.91-17.27c8.63,12,11.67,16.65,17.58,30.85l-9.77,10.11-130.96-21.54-33.22,94.66,109.99,18.09,25.91-17.28c10.21,14.15,13.97,20.06,18.43,31.74l-9.77,10.11-138.69-22.81c29.45,52.45,64.68,87.33,118.24,116.54-11.33,5.69-19.97,11.45-29.48,19.71-48.61-34.44-82.07-76.59-103.78-130.03l-99.79,234.2-7.28-1.2,81.15-230.09c-54.17,37.94-75.62,52.98-143,67.59v.02ZM465.4,135.2c21.75,24.65,31.78,48.07,26.1,62.9-1.85,4.83-5.8,8.57-11.46,10.25-3.62,1.03-10.71,1.73-13.04,1.28-3.67-.71-4.27-2.9-3.22-10.32,2.7-19.22-1.48-40.12-10.98-56.5l12.6-7.6h0ZM582.93,221.15c20.9-14.31,40.83-32.61,62.68-57.81,16.99,13.68,23.74,22.27,21.89,27.1-1.36,3.55-7.11,4.51-17.46,2.5-19.02,15.02-39.89,28.29-58.94,37.76l-8.17-9.55ZM674.25,455.86c13.6-31.01,45.46-141.28,55.68-218.99,16.18,1.1,25,4.38,24.28,9.85-.38,2.92-3.44,5.47-9.86,8.76-8.96,66.04-41.71,168.65-62.67,208.05l-7.43-7.66h0ZM757.1,435.7h-16.6l29.31-222.91h-44.89l-2.05-17.51h86.78l16.48-21.89c5.83,9.48,7.35,12.4,14.49,28.46l-6.06,10.95h-48.15l-29.31,222.91h0ZM827.8,100.79c9.63,15.69,10.26,17.15,14.68,27l-5.84,11.31h-93.86l-1.55-17.15h71l15.57-21.16ZM803.81,233.58c16.68,1.46,25.17,5.11,24.5,10.22-.43,3.28-3.81,6.2-11.09,9.85l-5.39,92.78h-16.05l8.03-112.84h0ZM859.02,263.42l-26.38,135.18c-1.71,8.75,17.81,13.13,58.56,13.13,52.15,0,58.36-1.16,65.32-12.75,4.2-6.18,9.42-22.02,19.2-56.78l16.42,3.48c-1.93,7.73-3.37,15.07-3.89,17.77-7.01,35.92-5.05,45.58,8.98,45.96-4.42,13.9-8.39,18.93-18.48,22.4-11.87,3.86-43.95,6.18-89.26,6.18-80.79,0-90.29-3.86-84.19-35.15l58.26-298.56c10.01,3.48,14.76,5.41,25.82,10.04h102.16l19.33-15.84c20.82,18.15,25.4,23.17,24.49,27.81-.38,1.93-1.96,3.48-4.83,5.02l-13.4,7.34-29.32,150.25h-26.07l4.97-25.49h-107.72.03ZM980.27,181.11l-46.81-47.87-51.08,44.29,44.17,42.35,53.72-38.77h0ZM1207.98,217.45c-17.48,20.06-80.97,70.04-86.11,91.45-2.18,8.5-5.56,12.24-10.32,12.24-2.72,0-4.52-1.36-7.2-5.44-7-14.28-8.64-31.96-4.63-54.74,3.54-20.06,9.25-37.06,23.53-71.74,6.26-14.28,8.54-21.42,9.74-28.22,1.56-8.84-.42-14.96-6.64-22.1l11.7-8.5c17.68,11.56,25.44,23.46,23.23,36.04-1.02,5.78-3.1,9.86-9.64,18.02-13.2,17-28.21,52.02-32.47,76.16-.6,3.4-.96,5.44-1.52,10.54l74-59.69,16.33,5.97h0ZM594.67,555.75c-172.53-15.53-346.74-46.79-517.53-75.83-11.82-2.3-25.78-4.67-35.06-8.81-.17-.09-.33-.18-.48-.27-1.17-.72-1.54-1.36-1.1-1.92.36-.43.68-.5,1.17-.73,2.91-1.75,24.37-2,35.78-1.45,72.62,3.03,147.97,8.8,221.37,13.8,93.46,6.34,186.13,13.5,279.66,12.94,112.65-.52,226.75-16.29,337.17-41.17,109.02-25.31,226.81-56.99,310.23-135.38,18.64-17.83,34.89-38.9,47.99-61.39,7.61-13.19,15.65-27,18.33-42.04,6.85-29.85-26.32-59.26-2.73-68.78,9.78-3.89,22.04-4.17,32.18-.74,38.66,13.88,7.77,81.83-1.39,108.77-44.32,126.19-160.32,202.03-276.48,261.99-16.76,8.36-32.75,14.42-53.51,19.37-25.11,5.94-52.07,10.17-77.26,14.95-47.91,8.61-87.68,16.08-135.16,16.07-27.8-.45-52.33-2.26-81.86-3.62-32.95-1.72-70.7-3.37-101.05-5.74l-.27-.02Z"/>
    </clipPath>
    <linearGradient id="_名称未設定グラデーション" data-name="名称未設定グラデーション" x1="0" y1="298.93" x2="1363.94" y2="298.93" gradientTransform="translate(0 598.67) scale(1 -1)" gradientUnits="userSpaceOnUse">
      <stop offset="0" stop-color="#2dd4bf"/>
      <stop offset="1" stop-color="#fb7185"/>
    </linearGradient>
  </defs>
  <g class="cls-3">
    <path class="cls-2" d="M1362.27,595.09c-1.94,5.19-7.44,3.81-11.76,4.15-304.37-.83-1249.82,1.4-1345.41-.67-2.61-.84-3.83-2.82-4.43-7.86-.74-6.31-.59-17.99-.62-36.29C-.11,426.46.15,170.56.07,27.01c-.15-4.42.17-8.22.18-12.23C.73.18,2.9.26,12.31.06,197.08-.11,1233.01.15,1351.55.06c13-.69,11.66,5.34,12.19,20.7.54,146.22-.24,389.27.05,550.67-.05,7.99.34,16.41-1.5,23.6l-.02.06h0Z"/>
  </g>
</svg>